<svg width="50" height="50" viewBox="0 0 50 50" fill="none" xmlns="http://www.w3.org/2000/svg">
<path fill-rule="evenodd" clip-rule="evenodd" d="M33.3333 25C33.3333 27.2102 32.4553 29.3298 30.8925 30.8926C29.3297 32.4554 27.2101 33.3334 25 33.3334C22.7898 33.3334 20.6702 32.4554 19.1074 30.8926C17.5446 29.3298 16.6666 27.2102 16.6666 25C16.6666 22.7899 17.5446 20.6703 19.1074 19.1075C20.6702 17.5447 22.7898 16.6667 25 16.6667C27.2101 16.6667 29.3297 17.5447 30.8925 19.1075C32.4553 20.6703 33.3333 22.7899 33.3333 25V25ZM30.2083 25C30.2083 26.3814 29.6596 27.7061 28.6828 28.6829C27.7061 29.6596 26.3813 30.2084 25 30.2084C23.6186 30.2084 22.2939 29.6596 21.3171 28.6829C20.3404 27.7061 19.7916 26.3814 19.7916 25C19.7916 23.6187 20.3404 22.2939 21.3171 21.3172C22.2939 20.3404 23.6186 19.7917 25 19.7917C26.3813 19.7917 27.7061 20.3404 28.6828 21.3172C29.6596 22.2939 30.2083 23.6187 30.2083 25Z" fill="black"/>
<path fill-rule="evenodd" clip-rule="evenodd" d="M25 2.08332C24.4417 2.08332 23.8875 2.10415 23.3396 2.14165C21.75 2.25623 20.5375 3.42707 20.1896 4.85832L19.4563 7.87915C19.4146 8.04165 19.2688 8.23748 18.9875 8.33748C18.4724 8.52418 17.9663 8.73483 17.4709 8.96873C17.2 9.09373 16.9584 9.0604 16.8146 8.9729L14.1605 7.35623C12.9021 6.58957 11.2188 6.61873 10.0146 7.66248C9.17503 8.38748 8.38962 9.17498 7.66253 10.0125C6.62087 11.2187 6.58962 12.9021 7.35628 14.1583L8.97295 16.8146C9.06045 16.9583 9.09587 17.2 8.96878 17.4708C8.73545 17.9646 8.52503 18.4708 8.33962 18.9875C8.23545 19.2687 8.0417 19.4166 7.8792 19.4562L4.85837 20.1896C3.42712 20.5375 2.25628 21.75 2.1417 23.3396C2.06247 24.4451 2.06247 25.5549 2.1417 26.6604C2.25628 28.25 3.42712 29.4625 4.85837 29.8104L7.8792 30.5437C8.0417 30.5854 8.23753 30.7312 8.33753 31.0125C8.52503 31.5291 8.73545 32.0354 8.96878 32.5312C9.09378 32.8 9.06045 33.0416 8.97295 33.1854L7.35628 35.8396C6.58962 37.0979 6.61878 38.7812 7.66253 39.9854C8.38753 40.825 9.17503 41.6104 10.0125 42.3375C11.2188 43.3791 12.9021 43.4104 14.1584 42.6437L16.8146 41.0271C16.9584 40.9396 17.2 40.9041 17.4709 41.0312C17.9646 41.2646 18.4709 41.475 18.9875 41.6604C19.2688 41.7646 19.4167 41.9583 19.4563 42.1208L20.1896 45.1416C20.5375 46.5729 21.75 47.7437 23.3396 47.8562C24.4451 47.9356 25.5549 47.9356 26.6605 47.8562C28.25 47.7437 29.4625 46.5729 29.8105 45.1416L30.5438 42.1208C30.5855 41.9583 30.7313 41.7625 31.0125 41.6625C31.5292 41.475 32.0355 41.2646 32.5313 41.0312C32.8 40.9062 33.0417 40.9396 33.1855 41.0271L35.8396 42.6437C37.098 43.4104 38.7813 43.3812 39.9855 42.3375C40.825 41.6125 41.6105 40.825 42.3375 39.9875C43.3792 38.7812 43.4105 37.0979 42.6438 35.8416L41.0271 33.1854C40.9396 33.0416 40.9042 32.8 41.0313 32.5291C41.2646 32.0354 41.475 31.5291 41.6605 31.0125C41.7646 30.7312 41.9584 30.5833 42.1209 30.5437L45.1417 29.8104C46.573 29.4625 47.7438 28.25 47.8563 26.6604C47.9357 25.5549 47.9357 24.4451 47.8563 23.3396C47.7438 21.75 46.573 20.5375 45.1417 20.1896L42.1209 19.4562C41.9584 19.4146 41.7625 19.2687 41.6625 18.9875C41.4758 18.4724 41.2651 17.9663 41.0313 17.4708C40.9063 17.2 40.9396 16.9583 41.0271 16.8146L42.6438 14.1604C43.4105 12.9021 43.3813 11.2187 42.3375 10.0146C41.6125 9.17498 40.825 8.38957 39.9875 7.66248C38.7813 6.62082 37.098 6.58957 35.8417 7.35623L33.1855 8.9729C33.0417 9.0604 32.8 9.09582 32.5292 8.96873C32.0337 8.73558 31.5276 8.52563 31.0125 8.33957C30.7313 8.2354 30.5834 8.04165 30.5438 7.87915L29.8105 4.85832C29.4625 3.42707 28.25 2.25623 26.6605 2.14165C26.1079 2.10241 25.554 2.08295 25 2.08332V2.08332ZM23.5625 5.2604C24.5196 5.19178 25.4804 5.19178 26.4375 5.2604C26.5521 5.26873 26.7188 5.36457 26.775 5.59373L27.5063 8.61457C27.825 9.9229 28.8105 10.8646 29.95 11.2771C30.3771 11.4312 30.7938 11.6042 31.2 11.7958C31.7677 12.0704 32.3946 12.2 33.0246 12.1731C33.6547 12.1462 34.2682 11.9636 34.8105 11.6416L37.4667 10.025C37.6688 9.89998 37.8542 9.94998 37.9417 10.025C38.6667 10.6541 39.3459 11.3333 39.975 12.0583C40.05 12.1458 40.1 12.3291 39.975 12.5333L38.3584 15.1875C38.0361 15.73 37.8533 16.3439 37.8264 16.9743C37.7994 17.6048 37.9293 18.232 38.2042 18.8C38.3959 19.2062 38.5688 19.6229 38.7209 20.05C39.1334 21.1896 40.0792 22.175 41.3834 22.4916L44.4042 23.2271C44.6355 23.2812 44.7313 23.4479 44.7396 23.5625C44.8082 24.5196 44.8082 25.4804 44.7396 26.4375C44.7313 26.5521 44.6355 26.7187 44.4063 26.775L41.3855 27.5062C40.7744 27.6621 40.2114 27.9668 39.7468 28.3932C39.2822 28.8196 38.9305 29.3545 38.723 29.95C38.569 30.3746 38.3952 30.7917 38.2021 31.2C37.9279 31.7678 37.7986 32.3948 37.8259 33.0249C37.8531 33.6549 38.0361 34.2683 38.3584 34.8104L39.975 37.4666C40.1 37.6687 40.05 37.8541 39.975 37.9416C39.3472 38.6676 38.6676 39.3471 37.9417 39.975C37.8542 40.05 37.6709 40.1 37.4667 39.975L34.8105 38.3583C34.2682 38.0364 33.6547 37.8538 33.0246 37.8269C32.3946 37.8 31.7677 37.9296 31.2 38.2041C30.7917 38.3958 30.3745 38.5682 29.95 38.7208C29.3549 38.9286 28.8205 39.2805 28.3944 39.7451C27.9684 40.2097 27.664 40.7725 27.5084 41.3833L26.773 44.4041C26.7188 44.6354 26.5521 44.7312 26.4375 44.7396C25.4804 44.8082 24.5196 44.8082 23.5625 44.7396C23.448 44.7312 23.2813 44.6354 23.225 44.4062L22.4938 41.3854C22.338 40.7743 22.0332 40.2114 21.6068 39.7468C21.1804 39.2822 20.6455 38.9304 20.05 38.7229C19.6254 38.5689 19.2083 38.3951 18.8 38.2021C18.2319 37.9274 17.6045 37.798 16.9741 37.8252C16.3437 37.8525 15.7298 38.0357 15.1875 38.3583L12.5334 39.975C12.3313 40.1 12.1459 40.05 12.0584 39.975C11.3325 39.3471 10.6529 38.6675 10.025 37.9416C9.95003 37.8541 9.90003 37.6708 10.025 37.4666L11.6417 34.8104C11.9637 34.2682 12.1463 33.6546 12.1732 33.0246C12.2001 32.3946 12.0704 31.7677 11.7959 31.2C11.6036 30.7916 11.4305 30.3745 11.2771 29.95C11.0695 29.3551 10.7179 28.8208 10.2537 28.3948C9.78955 27.9688 9.22716 27.6642 8.6167 27.5083L5.59587 26.7729C5.36462 26.7187 5.26878 26.5521 5.26045 26.4375C5.19183 25.4804 5.19183 24.5196 5.26045 23.5625C5.26878 23.4479 5.36462 23.2812 5.59378 23.225L8.61462 22.4937C9.22569 22.3379 9.78866 22.0332 10.2533 21.6068C10.7178 21.1803 11.0696 20.6455 11.2771 20.05C11.4305 19.6255 11.6036 19.2083 11.7959 18.8C12.0708 18.232 12.2006 17.6048 12.1737 16.9743C12.1468 16.3439 11.964 15.73 11.6417 15.1875L10.025 12.5333C9.90003 12.3312 9.95003 12.1458 10.025 12.0583C10.6542 11.3333 11.3334 10.6541 12.0584 10.025C12.1459 9.94998 12.3292 9.89998 12.5334 10.025L15.1875 11.6416C15.73 11.964 16.3439 12.1468 16.9744 12.1737C17.6048 12.2006 18.2321 12.0707 18.8 11.7958C19.2084 11.6035 19.6255 11.4304 20.05 11.2771C20.6449 11.0695 21.1792 10.7179 21.6052 10.2537C22.0312 9.7895 22.3358 9.22711 22.4917 8.61665L23.2271 5.59582C23.2813 5.36457 23.448 5.26873 23.5625 5.2604V5.2604Z" fill="black"/>
</svg>
