<svg width="50" height="50" viewBox="0 0 50 50" fill="none" xmlns="http://www.w3.org/2000/svg">
<path d="M21.3542 6.25C13.0125 6.25 6.25 13.0125 6.25 21.3542C6.25 29.6958 13.0125 36.4583 21.3542 36.4583C24.8214 36.4637 28.1839 35.2711 30.8729 33.0823L41.0823 43.2917C41.2264 43.4409 41.3988 43.5599 41.5895 43.6418C41.7801 43.7237 41.9851 43.7668 42.1926 43.7686C42.4001 43.7704 42.6058 43.7309 42.7978 43.6523C42.9899 43.5738 43.1643 43.4577 43.311 43.311C43.4577 43.1643 43.5738 42.9899 43.6523 42.7978C43.7309 42.6058 43.7704 42.4001 43.7686 42.1926C43.7668 41.9851 43.7237 41.7801 43.6418 41.5895C43.5599 41.3988 43.4409 41.2264 43.2917 41.0823L33.0833 30.8729C35.2717 28.1838 36.464 24.8212 36.4583 21.3542C36.4583 13.0125 29.6958 6.25 21.3542 6.25ZM9.375 21.3542C9.375 14.7385 14.7385 9.375 21.3542 9.375C27.9698 9.375 33.3333 14.7385 33.3333 21.3542C33.3333 27.9698 27.9698 33.3333 21.3542 33.3333C14.7385 33.3333 9.375 27.9698 9.375 21.3542Z" fill="black"/>
</svg>
